{"title":"Get Smart 2008 DVDrip English Klam","uid":6114976,"size":740486283,"categoryP":"video","categoryS":"movies","magnet":"?xt=urn:btih:f9bcb378724f921bf60d6e1c777814f96c632cdc&amp;dn=Get+Smart+2008+DVDrip+English+Klam&amp;tr=udp%3A%2F%2Ftracker.openbittorrent.com%3A80&amp;tr=udp%3A%2F%2Fopen.demonii.com%3A1337&amp;tr=udp%3A%2F%2Ftracker.coppersurfer.tk%3A6969&amp;tr=udp%3A%2F%2Fexodus.desync.com%3A6969","seeders":1,"leechers":0,"uploader":"Klambake","files":-1,"time":1295516189,"description":"With: Steve Carell, Anne Hathaway and Dwayne Johnson\n\nAmerican Maxwell Smart works for a Government spy agency in an administrative capacity. When the agency's head office is attacked, the Chief decides to assign Maxwell as a spy and partners him with sexy Agent 99, much to her chagrin. The duo nevertheless set off to combat their attackers by first parachuting off an airplane and landing in Russian territory - followed closely by a over seven foot tall, 400 pound goon, known simply as Dalip. The duo, handicapped by Maxwell's antics, will eventually have their identities compromised, and may be chalked up as casualties while back in America their attackers have already planted a bomb that is set-up to explode in a concert.\n\nGeneral:\n\nComplete name                    : Get Smart\\Get Smart.avi\nFormat                           : AVI\nFormat/Info                      : Audio Video Interleave\nFile size                        : 704 MiB\nDuration                         : 1h 49mn\nOverall bit rate                 : 896 Kbps\n\nVideo:\n\nFormat                           : MPEG-4 Visual\nFormat profile                   : Advanced Simple@L5\nFormat settings, BVOP            : Yes\nFormat settings, QPel            : No\nFormat settings, GMC             : No warppoints\nFormat settings, Matrix          : Default (H.263)\nCodec ID                         : DX50\nCodec ID/Hint                    : DivX 5\nDuration                         : 1h 49mn\nBit rate                         : 771 Kbps\nWidth                            : 616 pixels\nHeight                           : 336 pixels\nDisplay aspect ratio             : 16:9\nFrame rate                       : 23.976 fps\nColor space                      : YUV\nChroma subsampling               : 4:2:0\nBit depth                        : 8 bits\nScan type                        : Progressive\nBits/(Pixel*Frame)               : 0.155\nStream size                      : 606 MiB (86%)\nWriting library                  : XviD 1.0.3 (UTC 2004-12-20)\n\nAudio:\n\nFormat                           : MPEG Audio\nFormat version                   : Version 1\nFormat profile                   : Layer 3\nCodec ID                         : 55\nCodec ID/Hint                    : MP3\nDuration                         : 1h 49mn\nBit rate mode                    : Constant\nBit rate                         : 112 Kbps\nChannel(s)                       : 2 channels\nSampling rate                    : 48.0 KHz\nStream size                      : 88.1 MiB (13%)\nAlignment                        : Aligned on interleaves\nInterleave, duration             : 42 ms (1.00 video frame)\n","torrent":{"xt":"urn:btih:f9bcb378724f921bf60d6e1c777814f96c632cdc","amp;dn":"Get+Smart+2008+DVDrip+English+Klam","amp;tr":["udp%3A%2F%2Ftracker.openbittorrent.com%3A80","udp%3A%2F%2Fopen.demonii.com%3A1337","udp%3A%2F%2Ftracker.coppersurfer.tk%3A6969","udp%3A%2F%2Fexodus.desync.com%3A6969"],"infoHash":"f9bcb378724f921bf60d6e1c777814f96c632cdc","infoHashBuffer":{"type":"Buffer","data":[249,188,179,120,114,79,146,27,246,13,110,28,119,120,20,249,108,99,44,220]},"announce":[],"urlList":[]}}